REM DIRINDEX 1\2,1\3,1\4,1\5
REM DIRNAME cjc004,folder01,folder02,folder03,folder04
TITLE ""
FILE "1Q_t_0253-0262.mp3" MP3
  TRACK 01 AUDIO
    TITLE "3:cjc004_1660"
    INDEX 01 00:00:00
  TRACK 02 AUDIO
    TITLE "0:"
    INDEX 01 00:00:56
  TRACK 03 AUDIO
    TITLE "4:cjc004_1661"
    INDEX 01 00:01:01
  TRACK 04 AUDIO
    TITLE "0:"
    INDEX 01 00:03:19
  TRACK 05 AUDIO
    TITLE "5:cjc004_1662"
    INDEX 01 00:03:45
  TRACK 06 AUDIO
    TITLE "0:"
    INDEX 01 00:08:62
  TRACK 07 AUDIO
    TITLE "3:cjc004_1663"
    INDEX 01 00:09:42
  TRACK 08 AUDIO
    TITLE "0:"
    INDEX 01 00:10:49
  TRACK 09 AUDIO
    TITLE "4:cjc004_1664"
    INDEX 01 00:10:74
  TRACK 10 AUDIO
    TITLE "0:"
    INDEX 01 00:11:70
  TRACK 11 AUDIO
    TITLE "5:cjc004_1665"
    INDEX 01 00:12:22
  TRACK 12 AUDIO
    TITLE "0:"
    INDEX 01 00:17:10
  TRACK 13 AUDIO
    TITLE "3:cjc004_1666"
    INDEX 01 00:17:69
  TRACK 14 AUDIO
    TITLE "0:"
    INDEX 01 00:19:18
  TRACK 15 AUDIO
    TITLE "4:cjc004_1667"
    INDEX 01 00:19:46
  TRACK 16 AUDIO
    TITLE "0:"
    INDEX 01 00:21:35
  TRACK 17 AUDIO
    TITLE "5:cjc004_1668"
    INDEX 01 00:21:64
  TRACK 18 AUDIO
    TITLE "0:"
    INDEX 01 00:25:60
  TRACK 19 AUDIO
    TITLE "3:cjc004_1669"
    INDEX 01 00:26:46
  TRACK 20 AUDIO
    TITLE "0:"
    INDEX 01 00:27:61
  TRACK 21 AUDIO
    TITLE "4:cjc004_1670"
    INDEX 01 00:28:15
  TRACK 22 AUDIO
    TITLE "0:"
    INDEX 01 00:29:05
  TRACK 23 AUDIO
    TITLE "5:cjc004_1671"
    INDEX 01 00:29:36
  TRACK 24 AUDIO
    TITLE "0:"
    INDEX 01 00:34:69
  TRACK 25 AUDIO
    TITLE "3:cjc004_1672"
    INDEX 01 00:35:49
  TRACK 26 AUDIO
    TITLE "0:"
    INDEX 01 00:36:60
  TRACK 27 AUDIO
    TITLE "4:cjc004_1673"
    INDEX 01 00:37:20
  TRACK 28 AUDIO
    TITLE "0:"
    INDEX 01 00:38:67
  TRACK 29 AUDIO
    TITLE "5:cjc004_1674"
    INDEX 01 00:39:15
  TRACK 30 AUDIO
    TITLE "0:"
    INDEX 01 00:45:26
  TRACK 31 AUDIO
    TITLE "3:cjc004_1675"
    INDEX 01 00:46:06
  TRACK 32 AUDIO
    TITLE "0:"
    INDEX 01 00:47:23
  TRACK 33 AUDIO
    TITLE "4:cjc004_1676"
    INDEX 01 00:47:50
  TRACK 34 AUDIO
    TITLE "0:"
    INDEX 01 00:49:14
  TRACK 35 AUDIO
    TITLE "5:cjc004_1677"
    INDEX 01 00:49:37
  TRACK 36 AUDIO
    TITLE "0:"
    INDEX 01 00:54:72
  TRACK 37 AUDIO
    TITLE "3:cjc004_1678"
    INDEX 01 00:55:51
  TRACK 38 AUDIO
    TITLE "0:"
    INDEX 01 00:56:47
  TRACK 39 AUDIO
    TITLE "4:cjc004_1679"
    INDEX 01 00:57:09
  TRACK 40 AUDIO
    TITLE "0:"
    INDEX 01 00:58:17
  TRACK 41 AUDIO
    TITLE "5:cjc004_1680"
    INDEX 01 00:58:46
  TRACK 42 AUDIO
    TITLE "0:"
    INDEX 01 01:03:06
  TRACK 43 AUDIO
    TITLE "3:cjc004_1681"
    INDEX 01 01:03:59
  TRACK 44 AUDIO
    TITLE "0:"
    INDEX 01 01:04:62
  TRACK 45 AUDIO
    TITLE "4:cjc004_1682"
    INDEX 01 01:05:01
  TRACK 46 AUDIO
    TITLE "0:"
    INDEX 01 01:06:10
  TRACK 47 AUDIO
    TITLE "5:cjc004_1683"
    INDEX 01 01:06:40
  TRACK 48 AUDIO
    TITLE "0:"
    INDEX 01 01:11:52
  TRACK 49 AUDIO
    TITLE "3:cjc004_1684"
    INDEX 01 01:12:30
  TRACK 50 AUDIO
    TITLE "0:"
    INDEX 01 01:13:36
  TRACK 51 AUDIO
    TITLE "4:cjc004_1685"
    INDEX 01 01:13:55
  TRACK 52 AUDIO
    TITLE "0:"
    INDEX 01 01:14:72
  TRACK 53 AUDIO
    TITLE "5:cjc004_1686"
    INDEX 01 01:15:23
  TRACK 54 AUDIO
    TITLE "0:"
    INDEX 01 01:19:01
  TRACK 55 AUDIO
    TITLE "3:cjc004_1687"
    INDEX 01 01:19:56
  TRACK 56 AUDIO
    TITLE "0:"
    INDEX 01 01:20:51
  TRACK 57 AUDIO
    TITLE "4:cjc004_1688"
    INDEX 01 01:21:10
  TRACK 58 AUDIO
    TITLE "0:"
    INDEX 01 01:22:31
  TRACK 59 AUDIO
    TITLE "5:cjc004_1689"
    INDEX 01 01:22:62
  TRACK 60 AUDIO
    TITLE "0:"
    INDEX 01 01:28:37
